<svg xmlns="http://www.w3.org/2000/svg" id="icon">
  <defs>
    <style>
      .cls-1 {
        fill: #fff;
        fill-opacity: 0.8;
        fill-rule: evenodd;
      }
    </style>
  </defs>
  <path id="settings" class="cls-1" d="M252,162h-1a0.826,0.826,0,0,1-.1-0.02,5.942,5.942,0,0,1-1.031,2.5,0.79,0.79,0,0,1,.08.053l0.707,0.707a1,1,0,0,1-1.414,1.414l-0.707-.707a0.79,0.79,0,0,1-.053-0.08,5.942,5.942,0,0,1-2.5,1.031,0.826,0.826,0,0,1,.02.1v1a1,1,0,0,1-2,0v-1a0.826,0.826,0,0,1,.02-0.1,5.938,5.938,0,0,1-2.5-1.031c-0.021.025-.03,0.056-0.054,0.08l-0.707.707a1,1,0,0,1-1.414-1.414l0.707-.707a0.79,0.79,0,0,1,.08-0.053,5.942,5.942,0,0,1-1.031-2.5,0.826,0.826,0,0,1-.1.02h-1a1,1,0,0,1,0-2h1c0.035,0,.065.017,0.1,0.02a5.938,5.938,0,0,1,1.031-2.5c-0.025-.021-0.056-0.03-0.08-0.053l-0.707-.708a1,1,0,0,1,1.414-1.414l0.707,0.707c0.024,0.024.033,0.055,0.054,0.08a5.938,5.938,0,0,1,2.5-1.031A0.826,0.826,0,0,1,244,155v-1a1,1,0,0,1,2,0v1a0.826,0.826,0,0,1-.02.1,5.942,5.942,0,0,1,2.5,1.031,0.79,0.79,0,0,1,.053-0.08l0.707-.707a1,1,0,0,1,1.414,1.414l-0.707.708c-0.024.023-.055,0.032-0.08,0.053a5.938,5.938,0,0,1,1.031,2.5c0.034,0,.064-0.02.1-0.02h1A1,1,0,0,1,252,162Zm-7-4a3,3,0,1,1-3,3A3,3,0,0,1,245,158Z" transform="translate(-237 -153)"/>
</svg>
